<?xml version="1.0" encoding="utf-8"?>
<!-- Generator: Adobe Illustrator 22.1.0, SVG Export Plug-In . SVG Version: 6.00 Build 0)  -->
<svg version="1.1" id="Layer_1" xmlns="http://www.w3.org/2000/svg" xmlns:xlink="http://www.w3.org/1999/xlink" x="0px" y="0px"
	 viewBox="0 0 363.6 431.2" style="enable-background:new 0 0 363.6 431.2;" xml:space="preserve">
<style type="text/css">
	.st0{fill:#2F4F72;}
	.st1{fill:#00B9EB;}
	.st2{fill:#FFFFFF;}
	.st3{display:none;fill:#00B9EB;}
	.st4{display:none;fill:#FFFFFF;}
	.st5{fill:none;stroke:#2F4F72;stroke-miterlimit:10;}
</style>
<path class="st0" d="M295.3,413.3c-1.7-0.5-2.6-1.6-1.5-3.5l0,0c1-1.3,4.1-1.1,2.9-4l0,0c-1-1.2-1.6-2.7-1.9-4.2
	c-1.9-0.1-3.5-1.3-4.2-3c0.2-2.4-1.4-3.8-3-5.2c-1.4-1.1-1-3.6-3.1-4.2l0,0c-2-0.4-3-2.9-5.5-3c0.4,3.7,1.8,7.9-4.9,6.8
	c-2.2-0.4,1.1,2.3-0.1,3.5c-3.3-0.3-15.2-6.7-16.8-8.9c-7.8-10.8-12.4-9.6-22.6-5.1c-4.1,1.8-6,6.6-3.7,8.5c1.8,1.5,2.8,3.5,4.2,5.1
	c0.7,0.9,3.1,1.4,1,2.9c-1.2,0.8-1.8,4.1-4.3,1.5c-2.2-2.4-2.5,1.1-3.9,1.5c-1.9,0.6-0.2,1.9,0.2,2.9c1,1.9,2.8,3.2,4.9,3.5
	c10.9,2.2,19.9,8.2,28.4,15c2.5,2,4.2,3.3,7.5,0.1c3.3-3.3,7.8-5,12.4-4.7c2.5,0.3,5,0.8,7.4,1.4c3.8,0.8,6.3,0,7.4-3.9
	C295.8,415.2,297.2,413.9,295.3,413.3z"/>
<path class="st0" d="M311.4,386.2c-1.9,0.2-4.1,0.4-5.3-1.9l0,0c-1.4-2.5-2.1-7.3-6-1.7c-0.8,1.1-2-0.4-2.3-1.7l0,0
	c-1.7-0.9-2.4-6.6-5.5-1.1c-0.3,0.5-0.8,0.6-1.3,0.4c-0.2-0.1-0.3-0.2-0.4-0.4c-3.3-4.5-4.8-1.1-6.7,1.8c2.8,0.4,4.5,1.5,2.8,4.7
	c-0.4,0.7,0.4,1.9,0.7,2.9l1.5,3l0,0c3.9,0.8,3.9,3.2,3,6.2c0.1,0.2,0.2,0.3,0.3,0.5c0.9,0.4,1.6,1.1,2.1,1.9l0.4,0.3
	c0.3,0.2,0.6,0.5,0.8,0.8c1.5,0.4,1.9,1.8,2.4,3.2c1.7,1.4-0.6,3.7,1.1,5c1.6,0.3,2.3,1.2,1,2.4c-2.5,2.3-2,5.2-2.1,8
	c2,2.1,3.9,4.5,4.3,7.4c0.3,2.4,1.8,3.7,3.7,3.2s0.8-2.8,0.4-4c-3.5-11.9,2.9-20.2,9.8-28.3c2.3-2.7,5.2-5.6,1.4-9.3
	C316.3,386.7,314.2,385.9,311.4,386.2z"/>
<path class="st0" d="M291.9,398.5c0.1,0.1,0.3,0.1,0.4,0.2c-0.1-0.2-0.2-0.3-0.3-0.5L291.9,398.5z"/>
<path class="st0" d="M295.5,401.7c-0.2-0.3-0.5-0.6-0.8-0.8l-0.4-0.3c0.2,0.3,0.4,0.6,0.5,1C295.1,401.5,295.3,401.6,295.5,401.7z"
	/>
<path class="st0" d="M129.4,375.2c1.7-0.2,3.4-0.2,5.1-0.3c-0.7,4.3,6.5,5,4.4,10.2c-2.4-1.1-2.7-4.6-5.6-5.2l0,0v3.9
	c0.2,0.8,0.5,1.5,1,2.2c0.5,1.1,1.2,2.2,0.1,3.3c2.7,2.2,5.5,2.4,8.2,0.1l0,0c2-0.5,4,0.3,5.2,1.9c1.3,0.8,2.6,1.6,3.1,3.1
	c2.1-0.9,6.5-0.5,5.9-2.9c-1.6-6.2-3-13.4-9.2-16.6c-4-2.1-7.8-4.7-11.2-7.7c-3.4-2.9-6.8-2-10.5-0.2c-4.1,2-0.8,4.3-0.8,6.5
	C126.7,374,127.7,375.3,129.4,375.2z"/>
<path class="st0" d="M222.7,352.5c-3.4,3.3-4.5,7.6-5.4,11.9c-1,4.6-2.2,9.5-5.8,12.3c-3.1,2.4-5.2,5.4-7.4,8.4
	c-0.9,1.3-2.4,2.9,0.7,3.8c1.3,0.4,2,3.1,0.7,2.9c-4.2-0.9-3,2.1-3.4,3.8c-0.6,2.2-2.2,2.3-5.3,2.2c5.1,3.2,5.9,7.2,6.1,11.4
	c0.1,1.8,0.6,3.3,2.4,3.4c1.4,0.1,2.4-1.2,2.9-2.6c0.4-1.2,0.7-2.3,0.9-3.5c2.5-8.7,3.9-17.9,7.7-26c3.6-7.7,5.3-15.5,6.7-23.5
	C223.7,355.5,224.5,353.9,222.7,352.5z"/>
<path class="st0" d="M210.9,68.8c4-1,5.6,2.8,8.5,3.6c1.8-2.1,6-2.6,5.9-5.8c-0.2-4.7,1.7-6.1,5.8-6.1c1.1,0,2.6-0.3,2.5-2
	c-0.2-2-2.1-1.8-3.2-1.6c-2.5,0.5-5.1,0.8-7.5,1.4c-4.6,1.2-9.5,2-12.4,6.7C209.3,67,210,69,210.9,68.8z"/>
<path class="st0" d="M186.5,392.3c-2.3,2.2-2.7,0.8-3.7-0.7c-0.4-0.6-0.6-2-1.6-1.6c-3.5,1.4-4.7-1.3-6.4-3.2s-3.6-3.7-7-3.7
	c0.3,0.7,0.6,1.5,0.9,2.2c3.2,5.8,7.9,10.2,13.1,14.1c2.8,2.1,3.7-3.4,6.8-2.6c0.8,0.2,3.5,0.3,2.1-1.9
	C190,393.6,188.6,390.3,186.5,392.3z"/>
<path class="st0" d="M25.5,316c0.2-4.5-2.5-3.5-5-3.3l0,0c-1.8,1.7-1.6,3.3,0.3,4.8s2.5,3.7,3.5,5.6s1.2,4.4,3,6
	c0.8,0.7,1.7,1.4,2.7,0.7c0.4-0.3,0.8-1.4,0.6-1.7c-2.3-3.5-0.5-7.6-1.9-11.1C27.7,316.4,25.4,319.2,25.5,316z"/>
<path class="st0" d="M190.1,221.8c-0.6-1.5-0.2-3.9-2.3-4c-0.6,0-4.1,0.8-3.3,3.5c0.5,1.6,0.4,4.2,2.9,4.3
	C189.6,225.6,190,223.7,190.1,221.8z"/>
<path class="st0" d="M363.4,283.7c-0.9-1.6,0.6-4.9-2-6c-1.7-0.7-2.3,1.7-2.3,3.2c-0.2,2.3,1.2,4.4,3.4,5.1
	C363.3,286.3,363.9,285.2,363.4,283.7z"/>
<path class="st0" d="M263.4,142.9c2.2-0.2,3.2-2.3,3.4-4c0.2-1.9-1.7-0.9-2.7-1.1c-1.5,0.2-3.9-0.6-3.9,1.9c-0.1,1.6,1.1,3,2.7,3.2
	L263.4,142.9z"/>
<path class="st0" d="M142.7,391.2L142.7,391.2c-2.1,4.4,2.4,3.5,3.9,4.5c1.3,0.9,4,2.2,4.3-1.4c-1.8,0.1-2.8-1.3-4.1-2.2
	L142.7,391.2z"/>
<path class="st0" d="M287.9,269.6c2.6-1.4,2.2-3.9,1.2-6.5c-0.2,2.5-5.7,0.2-3.8,4.5C285.8,268.8,286.8,270.3,287.9,269.6z"/>
<path class="st0" d="M165.7,273.6c3.2,0.4,5.4,1.9,7.1-0.1c1.3-1.5,1.2-3.5-0.9-5.4C171.5,271.2,168.6,271.6,165.7,273.6z"/>
<path class="st0" d="M150.8,359.3c0.9,0.1,2-0.3,1.8-1.2c-0.3-1.8-1.4-3.3-3.1-4.1c-2.2,0-0.7,1.4-1,2.1
	C147.3,358.5,148.9,359.1,150.8,359.3z"/>
<path class="st0" d="M270.3,379.2c1.2,0.1,1.8-1.4,1.9-2.5c0.1-1.8-1.2-2.2-2.7-2.2c-0.9,0.1-2.5,0.2-1.9,1.5S268.7,379,270.3,379.2
	z"/>
<path class="st0" d="M45.4,333.3c-0.5,0.6-0.8,1.3-1,2.1C45.1,334.9,45.5,334.1,45.4,333.3z"/>
<path class="st0" d="M36.1,336.5c-0.9,1-2.2,2.4-0.5,3.4c2.3,1.4,2.6-1.3,3.8-2.3C38.2,337.5,37,337.5,36.1,336.5z"/>
<path class="st0" d="M36.1,336.5c0.8,0.9,2,1.3,3.2,1.1l0,0C38.6,336.2,37.3,336.5,36.1,336.5z"/>
<path class="st0" d="M160.9,368.1c-0.9-0.4-1.5-0.1-1.6,0.8c-0.2,1.1,0.5,2.2,1.6,2.5h0.1h0.2c0.9,0.2,1.7-0.2,2-1.1l0,0v-0.1
	C163.4,368.6,161.6,368.8,160.9,368.1z"/>
<path class="st0" d="M132.7,333.4c0.1,1,0.3,2.1,1.6,2.1c0.9,0,1.6-0.6,1.6-1.5l0,0v-0.1c0.1-1-0.6-1.9-1.6-2.1h-0.1
	c-0.8-0.1-1.4,0.5-1.5,1.2c0,0,0,0,0,0.1V333.4L132.7,333.4z"/>
<path class="st0" d="M38.2,353L38.2,353c2-2.8,0.2-3.5-2.1-4c-1.8-0.4-4.1-2-4.7,1.4c-0.8,4.2-1.8,8.4-1.9,12.6c0,2,1.3,5.4,4,5
	c2.3-0.4,3.9-2.6,3.5-4.9c0-0.3-0.1-0.6-0.2-0.8c-0.4-1.5-1.5-4.3,0.5-6.1c1.4,0.7,2.7,1.4,4.5,0.5C40.2,355.6,37.9,355.5,38.2,353z
	"/>
<path class="st0" d="M178.8,244.7c0.6,1.5,1.2,2.4,2.7,2.2c0.4-0.1,1-0.8,0.9-1C181.9,244.6,180.7,244.5,178.8,244.7z"/>
<path class="st0" d="M239,255.4c-1.1-1.9-2-3.2-4-2.8C235,255.2,236.5,255.6,239,255.4z"/>
<path class="st0" d="M197.7,389.7c1.1,0.3,1.2-0.8,1.2-1.6s-0.4-1.8-1.3-1.8s-1.6,0.6-1.3,1.6C196.5,388.6,197,389.3,197.7,389.7z"
	/>
<path class="st0" d="M248.4,268.6c0.4-1.4,0-2.5-1.7-3.7c-0.7,1.9-0.4,3,0.9,3.9C247.8,268.9,248.4,268.8,248.4,268.6z"/>
<path class="st0" d="M231,249.8c0.6,2.1,2.3,2.2,3.8,2.7C234.2,250.7,233.4,249.2,231,249.8z"/>
<path class="st0" d="M234.9,252.6h-0.1v0.1L234.9,252.6z"/>
<path class="st0" d="M219.7,74.3c0.9,0.2,1.8-0.2,1.8-1.2c0-0.2-1.3-0.4-2.1-0.6C219.2,73.1,218.3,74,219.7,74.3z"/>
<polygon class="st0" points="219.3,72.4 219.4,72.3 219.4,72.3 "/>
<path class="st0" d="M264,378.8L264,378.8c-2.7-2.8-4.1,1.4-6.4,1.1c-0.4-1-1.4-1.7-2.5-1.6c1.8,1.4,0.8,3.5,2.5,4.6l0,0
	c2.6,2.2,3.3-0.3,4.3-1.9C265,380.6,265,380.6,264,378.8z"/>
<path class="st0" d="M114.5,358.7c-0.4,0.3-0.6,0.7-0.6,1.2c0,0.6,0.5,1.2,1.1,1.2h0.1h0.2c0.3,0,0.5-0.8,0.7-1
	C115.8,359,115.2,358.6,114.5,358.7z"/>
<path class="st0" d="M352.9,281.5c-1.5-2.5-0.9-6.1-4-7.8c2-2.7-2.9-2.3-2-5c2.2-6.7-0.7-13-3.6-18.5s-2.3-10,0-15
	c0.8-1.7,2.2-3.1,3-4.8c0.5-0.9,2-2.1,0.5-3.1c-3.7-2.6-6.7-6.8-11.9-6.4c-2,0.2-4.2,0.1-5.5-0.9c-7.3-6-13-2-18.7,2.5
	c-6.7,5.2-12.4,11.4-19.8,15.7c-2.4,1.4-2.3,3.1-1.2,5.2c2.1,0.5,4.2,0,5.9-1.3c4.5-3.7,7.2-1.4,8.2,2.8c0.8,3.1,3.6,6.2,1.3,9.8
	l0,0c0.7,4.4,3.5,8.4,3.3,13c2.8,5.1,2.5,9.6-1,13.8l0,0l-4.1-1l-2.2-1l0,0l-2,0.4c0,0.7-0.1,1.5-0.9,1.6c-1.1,0.1-0.8-0.8-0.6-1.4
	c0.1-1,0.6-2,1.4-2.6l1.9-4.6l0,0c1.9-1.5,5.4,0.6,6.4-2.8l0,0c-1.2-3.8-2.3-7.6-3.1-11.5c-0.3-1.5-1-2.8-2.1-3.8
	c-1.1-0.6-1-1.6-1-2.7c0-1.5,2.7-2.5,1-4c-1.8-1.5-3.9-2.6-6.1-3.4c-2.3-0.8-2.5,1-2.3,2.7l0,0c2.3,2,2.4,5.2,4,7.6
	c1.1,1.6,0.5,4.4-1.4,4.9c-6.4,1.7-5.1,6.5-5.3,11c-0.2,4.2-0.8,8.4-5,10.9c2.8-3.4,0.9-5.9-1.2-8.5c-0.9,0.8-2.1,1.1-3.3,0.8
	c-1.9-0.3-5.1,1.9-5.3-0.3c-0.2-2.8,3.4-1.1,5.2-1.8l0,0c4.4-2.7,0.5-5.3,0-8c-1.9,1-3.8,2.1-5.8,3.1c-0.9,0.6-2.1,0.6-2.9-0.2
	c-1-1.2,0.7-1.6,0.9-2.3c1.2-3.7,3.8-3.5,6.8-2.7c2-4.4-1.8-6.5-3.9-9.1c-1-1.3-1.4-2.4-0.6-3.7s1.9-1,3.1-0.3
	c2.3,1.4,3.3,0.4,2.8-2c-0.3-1.6,0.4-3.1,1.7-4c0.9-0.8,1.3-1.6,0.4-2.6s-1.9-0.2-2.6,0.5c-2.3,2.2-6,4.9-8,3.5
	c-4.3-2.9-8.5-0.4-12.5-1.2l0,0c-2.5-1.7-5.6-0.8-8.3-1.8c-0.7-0.8-1.8-1.3-2.9-1.3l0,0c-1.2-0.7-2-2.1-3.9-1.6
	c0.4,1.5,1,2.6,2.7,2.6l3,1.2c0.3,0.7,1,1.1,1.8,1.1c2.4,1.2,5,0.8,7.6,0.8c4.1,1.6,4.2,5.1,4,8.6c-0.2,3.5-2.4,4.7-5.6,5.5
	s-6.8,2.1-5.2,7.3c0.8,2.4-6.8,9-9.3,8.3c-5-1.4-9.7-3.2-14.6,0.3c-1.2,0.9-3-0.2-4.4-0.8c-3.1-1.3-6.2-1.6-9.4,1
	c6.2-0.1,10.4,3.2,14.3,7.2c0.6,0.6,2.3,0.5,1.6,2c-0.5,1-1.7,1.5-2.7,1.1c-0.1-0.1-0.3-0.1-0.4-0.2c-2.7-1.6-5.4-0.9-8.1-0.3
	c4.4,1.3,8.9,1.9,12.7,4.9c4.3,3.4,5.4,8.4,2.4,12.3c-1.4-0.3-2.7-0.3-3.2,1.4c-0.3,0.5-0.1,1.2,0.4,1.4c0,0,0.1,0,0.1,0.1l0,0
	l0.2,0.1c1.6,0.5,1.5-1.5,2.5-1.9c2.7,2.5,4.1,5.8,5.5,9.1c2.2,5.6,1.4,10-2.4,12c-5.4,2.8-5.4,2.9-0.6,7c1,0.9,2.2,1.7,3.4,2.3
	c3.2,1.5,4.4,3.8,4.2,7.4c-0.4,6.1,0.7,6.8,6.9,5.6c1.3-0.1,2.6,0,3.9,0.2c0.7,0,1.8-0.3,1.9-0.1c0.9,1.3,1.7,3.2,3.4,1.9
	c2.3-1.8-2.1-2.3-1.2-4.1c5.5,2.9,12,2.8,17.6,5.3l0,0c-0.3-1.9,0.7-3.2,2.1-4.2l0,0c1.1-1.3,2.7-1.4,3.3,0c0.8,1.8-1.6,0.7-2.1,1.5
	c-1.4,2.2,2.6,2.6,1.5,4.7c0.6,1,1.7,0.8,2.7,1c1.6,0.3,3.4-1.1,4.7,0.6c0.2,0.3-0.1,0.9-0.1,1.4c-2.2-0.7-3.5,3.9-6.2,1.1
	c-0.8-0.8-0.6,0.7-0.9,1l0,0c1.5,2.3,2.4,5,5.9,5.6c1.9,0.3,3.1,2.4,3.5,4.6l0,0l0.1,2.1c1.7,1.6,4.5,4.9,4.9,4.6
	c4.4-3.1,5.9,1.3,8.5,2.8c1.7,0.2,3.3,1.4,5.1,0.6l0,0l2.1-1.7c0.8-3.3,5.4-1.9,6.2-5.1l0,0c-0.9-1.1-1.6-2.2-2.2-3.5
	c-0.8-2.2-4.5-5.1,1-6.3c0.3-0.1,0.4-0.9,0.5-1.4c1.5-4-0.2-5.2-6.6-4.4h-1c-2.8,2.1-3.4-1-4.2-2.2c-1.5-2.2,0.9-3,2.1-4.1
	c1.4-1.6,3.7-0.8,5.3-2c4.1-4.9,8.7-8.5,15.7-8c3.2,0.2,9.4-4.9,9.4-7.4c0-6.9-2.6-13.4-11.6-14.6c-6-0.8-9.7-4.2-9.2-8.6
	c0.6-5.2,1.3-10.8,6.2-14.1c4.6-3.2,8.7-7.9,15.3-5.3c1.1-1.5-0.5-4.2,2.7-5c0.7,2.2-1.6,4-0.8,6l0,0c2.2,2.2,3.8,6.4,8,3.4
	C356.1,288.3,356.2,287.3,352.9,281.5z M240.5,329.3c-0.9,0.1-1.7-0.2-1.7-1.3s0.3-2,1.6-2c0.9,0,1.6,0.6,1.9,1.4
	C242.5,328.6,241.6,329.1,240.5,329.3z"/>
<path class="st0" d="M182.7,379.5c-1-1.2-2.2-1.8-4.6-1.3C180,379,181,380.6,182.7,379.5z"/>
<path class="st0" d="M129,339.5c-0.4,0.2-0.7,0.6-0.7,1.1c-0.1,0.9,0.7,1,1.3,1s1.3,0.2,1.3-0.8C130.3,340.2,130,339.2,129,339.5z"
	/>
<path class="st0" d="M292.7,366.3c-0.5,0.6-0.5,1.4,0,2l0.1,0.1L292.7,366.3z"/>
<path class="st0" d="M196.7,255.5c0.5-1.4,1.5-3-1.3-2.8l0,0c-1-1.2,2.1-2,0.2-3.3c-2.7-1.8-4.4-4.9-4.4-8.2
	c-0.1-0.6-0.4-1.2-0.9-1.6c-1-0.4-1.5,0.6-2,1.2c-1.7,2.4-1.2,5.6,0.8,6.3c4.8,1.6,4.4,5,4.4,8.6l0,0c-4.6,2.2-5.9,5.9-4.9,10.8
	c0.6,3.2,2.4,4.2,5.4,4.1c3.2-0.1,3.5-2.8,3.4-4.7c-0.1-3-0.2-5.6,1.5-8.3C200.2,255.4,197.9,255.7,196.7,255.5z"/>
<path class="st0" d="M349.5,373c-1.4-4.6-4.9-6-9.4-6.4c-4-0.3-8.2,1.2-11.9-1.4c-0.4-3-2.2-2.8-4.3-2c-2-0.5-2.9,0-2.3,2.2l0,0
	c1.5,1.5,3.8-1,5.3,1c1.3,1.5,1.1,3.3,1.1,5.1l-1.3,1.8l0,0c-2.2,1.4-4.2,1.5-6.1-0.6l-1.6,1.9l-0.9,0.3c-3,1.2-0.8,5-2.6,6.9
	c0.8,4.1,3.1,5.9,7.3,5.3l0,0c0.1-0.1,0.3-0.2,0.4-0.4c5.5-8.7,11.5-15.4,23.3-9.7C349.1,378.5,350.3,375.5,349.5,373z"/>
<path class="st0" d="M203.3,375.9c-1.5-0.2-1.5,1.6-2.6,2c-4-1.8,0.1-3.5,0.1-5.3l0,0c0.5-0.8,0.6-1.9,0.3-2.8
	c-0.1-0.2-0.2-0.3-0.3-0.5c-0.3-0.4-0.6-0.8-1-1.1h-0.4c-0.4,0-0.8,0.1-1.1,0.3c-0.4,0.2-0.7,0.5-1,0.8c-0.6,0.6-1.4,1.1-2.3,1.4
	l-0.4,0.2c-0.3,1-1.2,1.7-2.2,1.8c-3.9,3.2-1.6,6.5,0.8,8.5c2.6,2.2,5.7,0.9,7.6-2c1.3-0.3,2.9,0,3-2
	C203.8,376.7,203.6,376.2,203.3,375.9z"/>
<path class="st0" d="M312.6,380l-0.2-0.2c-2.1,0.1-4.5-0.4-6,1.7l0,0c0.5,0.1,1,0.2,1.4,0.5c2,1.2,4.2,3.6,5.6-1.2
	C313.3,381,312.9,380.3,312.6,380z"/>
<path class="st0" d="M212.4,332.2L212.4,332.2c-1-6.2-4.7-10.8-9.1-15.1c-4-3.9-3.8-4.5,1.3-6.7c1.4-0.6,2.3-1.2,1.3-2.5
	c-3.5-4.6-4.6-10.6-8.4-15c-0.4-1.2-0.9-2.3-2.4-2.1c-0.5,0-1.2,0.1-0.9,0.9s1.1,1.4,2,1.3l0,0c1.1,1.8-2.8,1.7-1.4,2.8
	c3.1,2.4,0.4,5.7,2.4,8.3c-1.8,0.2-3.2-2.1-4.4,0.1c1,1.6,4.1,1.2,3.9,3.6s-3,1.4-4.4,2.5c-1,0.8-2.6,0.8-3.9,1.1l0,0
	c-1.1-1.4-2.8-0.6-4.1-1.2l0,0c0.1-0.2,0.1-0.5,0-0.7c2.1-1.4,3.3-8.4,1.5-9.9c-4.2-3.6-8.6-7.1-14-8.8c-0.2,0-0.3,0.2-0.4,0.4
	l-1.8,1.9l0,0c-1.2,0.2-2.5,0-3.5,0.6c-6.7,3.9-14.5,5.5-20.4,11.2c-3.6,3.5-6.9,2.4-8.5-2.3c-1-3-2.9-1.4-4.6-1.2l-2.2,1.1
	l-0.2,2.9l0,0c-0.4,1.5-1.2,2.4-3,2l0,0l-2,0.2v1l0,0c0.9-0.2,1.9,0.4,2.1,1.3c0,0.2,0.1,0.4,0,0.6l2.1,1.8c2.2,0.1,3.2,1.2,2.8,3.5
	c1.9,0.3,4.1,0.3,3.1,3.3l0,0c0,0.9-2.1,1.1-1.2,1.7c5.2,3.4-0.2,3.9-2.4,6c8.8,1.3,9.7,6.5,8.7,13.4c-0.4,3.1,1.8,5.9,4.9,6.3
	c2,0.2,3,1.6,4.3,2.7c2.3,1.8,4,4.3,7.4,2c1.4-0.9,1.7,0.7,2,1.5c1.3,3.3,4.1,7-1.9,8.9c-1.3,0.4-2.2,2-1.4,4.1
	c2.4-1,4.6-2.3,7.1-0.4c3.3,2.6,5.5,2.7,3.7-4.2c7.5,8.1,16.4,8.5,24.7,10.6l0,0l3.6-2c0.8,0.1,1.5-0.3,1.8-1
	c0.7-1.2,1.3-2.7,3.1-1.1l3.1-0.4c0.9-0.9,2-0.6,3-0.5c5.9-8.5,8.2-17.7,5.2-27.9c0.4-1.4-0.5-3.1,1.1-4.2c0.9,0.3,2,2.2,2.7,0.6
	S213.3,333.1,212.4,332.2z"/>
<path class="st0" d="M8.4,253.8c0-0.1-0.1-0.1-0.2-0.2l0,0L8.4,253.8z"/>
<path class="st0" d="M46.7,155.1l0.1,0.1l0.1-0.1H46.7z"/>
<path class="st0" d="M213,171.5c-0.4-0.6-0.7-1.2-0.8-1.9c-1.1-3.8-4.2-4.5-7.4-4.1c-4.1,0.5-8.1,1.3-12.1,2.3
	c-11.5,3-16.8,0.5-21-10.3c-2.4-1.1-2,2.4-4.1,2.3c-0.4-2.5,1.6-3.3,3.2-4.4l0,0c4.1-3.1,2.5-7.2,1.9-11.1c-2.2-1.8-4.6,1.5-6.8-0.2
	l0,0c-2.2,1.1-4.4,4.2-6.4-0.1c0-0.1,0-0.1-0.1-0.1l0,0l0,0c2.8-1.8,5.6-3.2,8.9-0.8l3.3-0.3c-5.5-12-7.9-24.2-3.1-37.1l-2.8-0.1
	c-3,1.5-5.1,0.6-6.2-2.6l0,0c0.6,0.2,1.1,0.4,1.7,0.6c1.4,0.7,3,1.1,4.6,1c1.4-1.3,2.7-0.9,4.1-0.1c3.4-2.6,3.5-6.6,4.1-10.2
	c1.2-6.7,2.2-13.9,7.5-18.3c5.1-4.2,5-8.3,3.7-13.6s-3.6-11.1-1.1-16.2c2.3-4.6,0.5-7.2-1.9-10.3c-1-1.4-2.1-2.7-3.1-4.1
	c-2.4-3.5-4-7.4-2.5-11.7c1.9-5.9,5.6-11.1,10.5-15c1.6-1.3,3.4-2.3,3.9-4.6c-3.9-1.5-6.3,1-8.8,3c-3.5,2.8-6.8,5.8-10,8.9
	c-7.7,7.4-16.5,11.7-27.5,10.2c-1.5-0.2-3.5-0.8-4.2,0.9c-2.9,7.3-9.6,12.2-12.5,19.4c-4.2,10.4-9.6,20.3-16.3,29.3
	c-7.5,10-24,15.5-35.1,11.1c-3.1-1.2-6.3-1.8-9.3,0.5c-6.6,5.2-13.5,8.3-21.7,3.6c-1.7-0.8-3.6-1.3-4.8,0.7
	c-2.6,4.5-6.5,7.9-9.6,11.9c-6.1,7.8-12.1,15.8-15.6,25.3l-1.4,5.9l0,0c-0.1,0.6-0.3,1.2-0.4,1.7c-0.8,3.4-1.3,6.9,0.9,10.8
	c1.3-3-0.6-6.2,1.5-8.2c0.3-0.3,0.7-0.6,1.1-0.8c2.3,3.3,2.2,7.7,4.9,11c1,1.2,1.6,2.5,3.5,2.2l0.7,0.4c4.6,2.6,6.7,7.4,9.4,11.6
	c0.1,0.2,0.2,0.3,0.3,0.4l0,0l0.1,0.1v-0.1l0,0c0.1-0.3,0.2-0.6,0.4-0.9c1.4-1.9,5.7-1.4,4.8-5.2c3.7,0,3.2-2,2.1-4.3H43
	c-0.7-0.1-1.4,0-2,0.3c-0.5,0.3-0.8,0.9-0.7,2c-0.7-0.2-1.3-0.8-1.1-1.5c1.3-3.6-0.3-4.2-2.9-3.9l-0.7,0.1l0,0l0.3-3l0,0l-0.9-1
	c-1-0.7-4.1,0.4-2.2-2.6c0.2-1,0.8-2.3,0.4-2.9c-3.8-6.1,2-7,5-8.8c1.7-1,2.6-2.5,4-3.6c0.2,0.1,0.4,0.2,0.6,0.4
	c0.7,1.2-0.5,3.9,2.5,3.4c0.4,0.1,0.8,0.5,0.7,0.9v0.1c0,0.2-0.1,0.4-0.2,0.5c-0.9,0.7-2,1.8-3,1.7c-3.2-0.3-5.6-0.5-5.1,4.1
	c0.2,1.6-3.7,1.7-3.7,4.3l0,0l2,0.3c0.8,0,2-0.7,1.9,1c0-0.2,0.2-0.4,0.4-0.4h0.1c0.7-0.2,1.4-0.9,1.8,0.3c3.8,0.8,2.5,4.9,4.4,6.9
	l0,0c4.9-0.9,9.3-2.5,11.8-7.2l0,0c0.6-1,1.5-1.8,2.5-2.2l0.9-0.3c-0.2-0.3-0.4-0.5-0.5-0.8c-0.8-1.2-0.6-2.8,0.6-3.7l0.3-0.2
	c0.1-0.1,0.3-0.2,0.4-0.3l0,0c1-2.1,1.4-3.9-0.3-6c-1.1-1.4-1.3-3.5-1.6-5.3c-0.3-1.4,0.3-3.5,1.8-3c5.3,2,3.4-2.8,4.3-4.5
	c1-1.4,0.7-3.4-0.7-4.4c-1.4-1-3.4-0.7-4.4,0.7c-0.1,0.1-0.1,0.2-0.2,0.3c-0.3,0.5-0.5,1-0.5,1.5c-0.6,3.2-3,3.6-5.4,4.6
	c-2.7,1-5.4,0.8-8.1,1c-0.2,0.2-0.3,0.4-0.4,0.7c-0.4,1.4,0.9,3.3-1.2,4.4c-0.2-0.3-0.3-0.7-0.4-1.1c-0.5-1.7,0.2-3.5-0.1-5.1l0.5-1
	l0,0c2-3.7,3.2-8.2,9.4-6.1c1.2,0.4,6-0.8,6-4.9c-0.1-0.6,0.3-1.2,0.9-1.3c0.3,0,0.6,0,0.8,0.2c4.3,4.3,5.4-2.2,8.5-2.6
	c3.9-0.5,7.6-1.5,11.2-3.1c1.8-0.9,3.4,1.9,4.8,3.3c1.9,1.8,3.8,3.5,6.7,1.9l0,0c1.6-1.3,2.9-2.9,5.1-3.2l0,0
	c0.9-1.1,2.1-0.8,3.2-0.8l0,0c3.5-2.2,7.5-3.1,11.6-2.7c2.4,0.4,4.8-0.6,6.2-2.5l0,0c-1.1-1.5-1.1-3,0.7-3.6s1.2,2,2.4,2.4
	c2.5,1.2,5.3,2.1,6.6-1.2c2-4.9,4.1-2.8,6.6-0.6l0,0l3.1,2.1c0.5,0.1,0.9,0.3,1.3,0.6c0.5,0.3,0.8,0.8,0.9,1.3h-4
	c-2.9,3.3-6.5-0.7-9.5,1c-5.3,0.3-5.2,5.7-7.7,8.6c-1.4,1.6-2.3,3.3-4.7,2.8l0,0c0.8-3.9-0.9-6-4.8-6.3l0,0c-1.4-0.6-3-0.9-4.5-0.8
	c-0.7,0-1.3,0-2-0.1l0,0c-0.3,0.3-0.6,0.5-1,0.6c-1.3,0.4-2.7,0.7-4.1,0.7l-1.3,0.9l-1.1,0.8l0,0c-1.9-0.3-1.8,1.7-3,2.2l0,0
	c-3.1,2.4-5.6,5.5-7.4,9c-0.8,1.5-1.7,3.1,0.3,4.6c2.9,2.1,2.4,4.6,0.8,7.3c-2,3.5-1.7,6.5,2.1,8.8c2.7,1.6,1.8,3.7,0.1,5.5
	c-0.9,2.5-4.1,3.6-4.3,7c2.3,0.4,3.4-1.6,5.1-2.1s3.3-2.7,5.1-1c1.6,1.4,2.3,3.6,1.9,5.7c-0.6,2.5-0.2,7.3-5.2,3.4
	c-2.3-1.8-5.4,2.2-7.6-0.8c0-0.2,0.1-0.5,0.2-0.7c0.3-0.8,0.8-1.6-0.2-1.8c-1.4-0.3-1.2,0.9-1.3,1.9c0,0.2,0,0.4-0.1,0.5
	c0,0.1-2.5,3.8-2.6,3.9c-1.4,1.9,0.6,5-2.4,6.2c-3.1-5.9-2.9-6.1,3.1-15.2c1.5-2.3,4.3-3.9,4-7.2c-1.7-1.4-3-3.4-3.5-5.6
	c-2.1-5.7-2.7-6-8.4-3.4l0,0l1-1.9c0.3-0.6,0.6-1.2,1-1.7c0.6-1.1,3.7-0.2,2.4-2.8c-1.1-2.3-3.2-1.5-4.9-1.1c-6.2,1.4,0,4-0.4,6
	c-0.9,0.3-2.1-0.1-2.9,0.3c-0.3,0.2-0.6,0.5-0.8,0.8c-1.9,0.7-2.4,3.2-4.7,3.4l0,0c-0.6,1.2-1.1,2.6-2.3,3.4
	c-0.1,1.3-0.6,2.6-1.4,3.6c1.7,2.1,4.3-0.7,6.3,1.5c-2.7,0.8-5,2.8-8,1.6l-2.4,4.5c-1.5,3-3.5,5.3-7.6,4.7l-0.1,0.1
	c1.3,2.8,1.8,5.4,4.1,6.8c2,1.2,2.6,2.5,1.2,4.6c-1,1.4-0.4,3-0.3,4.5c0.2,2.1-0.2,3.8-2.5,4.4s-5,2.1-6.5-0.7
	c-1.2-2.2-2.8-2.1-4.6-2.1l0,0c-0.5,0.8-0.7,1.9-2.5,2c0.8-2.5,1.7-4.1,4.5-4c1.8-2.8-1.4-4.7-1.2-7.1l-2,0.8
	c-1.3,1.4-2.2,2-4.3,0.6c-4-2.6-8.1-5.3-13.3-2.9c-0.4,0.1-0.9,0-1.3-0.2c-0.2-4.8-5.5-5-7.3-8.3c-1.1-2,0.3-4,1.2-5.6
	c0.7-1.2,1-2,0.3-3.1c-3.1,1.4-3.4,4.5-4.2,7.2c-2.5,9.1-4.3,18.4-3,28c0.4,0.6,1,1.1,1.4,1.8c0.4-0.4,0.9-0.6,1.5-0.5l0,0
	c-0.6,5.5,4.2,8.1,6.4,12.1l0,0c0.5,0.9,1.1,1.7,1.8,2.4c1,0.9,1.8,1.7,0.8,2.9c-0.6,0.8-1.4,1.4-2.4,1.7c-1.4,0.1-1.2-1.3-1.3-2.3
	c-0.1-1.6-1.8-1.4-2.5-2.2h-0.4l-0.3-0.2l-4.2-1H6c-1.7,1.8-1,16.4-1.7,21.5c-0.9,6.9-3,13.8-1.3,20.8c-0.3,1.1,0.1,2.4,1,3.1l2,7.4
	l0.2,2.9c0.1-0.1,0.2-0.1,0.2-0.2c1-1,0.6-2.4,0.7-3.6l0.2-0.1c0-0.1,0-0.1-0.1-0.2c0-0.3-0.1-0.6-0.3-0.9l0,0L5,240.2v-0.1l0,0
	v-11.4l0,0c0.9-3.4,3.1-3.7,5.8-2.1c4.2,2.4,8.3,4.9,7.8,10.8c-0.2,1.9,0,3.9,1.5,5.3c7.5,7.1,2.5,14.3-5,17.9
	c-1.8-1.8,2.5-4-0.3-5.1c-0.6-0.2-3.4-3.2-4.6,0.2v2c0,1,0.2,2.7-0.7,2.6c-2.2-0.3-1-2.3-1.2-3.6l0,0v-3H8v-0.2
	c-0.3-0.1-0.6,0-0.9,0.1c-0.7,1.3-0.7,2.9-0.2,4.3l0,0c1.5,10.9,1.3,21.6-4.4,32.1c-1,2.1-1.5,4.3-1.6,6.6c-0.1,1.2-2.1,3.2,0.1,4
	c6.2,2.2,10.9,6.6,15.8,11.1c1-2.2,0.7-3.4-0.4-4.1c-2-1.4-2.2-3.8-3.4-5.5c-1.5-2.2-0.3-3.9,0.9-5.6c0.6-0.9,1.7-1.3,2.7-1
	c3.1,1,0.2,2.7,0.5,3.9c0.4,1.1,1.1,2.1,1.9,3l5.7,7.2c2.4,1.3,2.6,5.3,6.2,5.2l0,0c4.5-0.8,8.9,0.6,10.7,4.3
	c2.3,4.4,3.6,9.3,3.8,14.3c0.2,0.8-0.2,1.7-1,2.1c0.2,2-0.3,4,0.1,6.1c1.5,8.6,2.9,17.2-1.3,25.6c-1,2.2-1,4.8,0,7
	c1.5,3.4,1.6,7.2,0.3,10.6c-0.4,1.2-1.5,3.4,0,3.6c3.6,0.5,6.5,3.5,10.7,2.4c5.8-1.5,12-1.9,17.6,1.3c2.5,1.5,5.4,2.2,8.3,1.9
	c3.7-0.2,8,0.7,9.8,4.2c2.6,5.3,7,6.5,10.8,2.2c0.8-0.9,1.1-2,2.7-1.9c2.8,0.1,11.8-5.5,13.6-8.2c0.1-0.3,0.1-0.8,0.3-0.9
	c1.7-1,1.2-4.4,4.1-3.8c1,0.2,2.5,1.4,0.9,2.5c-1,0.7-2.8,0.2-3.1,2c1,0.7,2.8,1.5,2.7,2c-0.5,3.3,1.1,4.1,4,4.3
	c1.5,0.1,2.7,3.7,4.6,1.1c1.8-2.3-1.1-3.8-2-5.6c-0.3-0.6-1.7-0.4-1.6-1.6c1.6-1.7,4.2,1.4,5.6-1.2l-0.7-2.6c-2.7-2-1.7-5.1-2.5-7.6
	c-2.7-1.5-6.2-1.4-8.2-4.2l0,0c-2.5-4.4-5.7-3.8-9.2-1.2c-2.7,2-5,0.7-7.3-0.9c0.8-1.9,2.4-2.2,3.8-2.5c6.4-1.5,7.1-3.4,3.2-8.7
	l-3.8-1.1c0.8-2.4,2.6-0.6,3.7-1.1l0,0c-0.4-1.2-1.9-3.3-0.7-3.7c3.2-1.1,4.4-7.5,9.6-3.6c1.4,1,2.7-0.4,3.6-1.2
	c3.6-3.1,3.1-9.4-1-12c-2.4-0.4-4.1,1-6,2c0.8-2.2,2.8-3.8,5.1-4l0,0c-1.5-3.5,0.9-9.2-6-9.8c3.6-0.6,4.4-2.1,2.4-4.9
	c-1.6-2.3-1.3-3.5,1.7-4.2s5-2.5,3-6c-2-2.6-4.7-2.5-7.6-1.8l0,0c-1.8-0.4-3.4,1.7-5.3,0.3c-0.2-0.2-0.4-0.8-0.3-0.9
	c1.6-1.8,3.8-0.3,5.6-0.8l-0.2-3.1c0-0.2,0.2-0.4,0.4-0.4h0.2c2.2,0.9,4.4,2.9,6.6,0.2l0,0c1.9-1.9,5.1,1.3,5.4,0.2
	c0.3-0.6,0.4-1.4,0.1-2c-0.3-0.7-1.6-1.2-0.3-2.2l3.3-2.2l0,0c0.5-3.4,3.7-5,5.9-7.6c-7.5-0.9-7.3-1-8.4-2.5
	c-2.9-3.8-5.4-8.4-11.6-6.6c-0.9,0.3-2.1-0.1-1.9-1.8c4.6-0.1,9.1-2.3,13.5,2.2c2.7,2.5,6.8,2.7,9.8,0.5c1.6-1.1,3.5-1.6,5.4-1.4
	c6.4,1,4.8-5.6,7.9-7.7c-4.7-3.7,1.1-5.9,1.2-9c-3.7-2.2-8.3-1.6-12.1-3.5c-0.9-0.4-2.3-0.5-2.1-1.8c0.2-1.7,1.8-0.8,2.8-1.1
	c3.9-1.3,7.9-2.1,11.9-2.6c3.3-0.2,5.6,0,6,3.8l0,0c2.4,1.5,4.6,1.8,3.9-2c-0.4-1.7,0.3-3.5,1.8-4.4c3.3-2.5,3-5.9,2.8-9.3
	c-0.1-1.2-0.7-2.5-0.3-3.5c2.4-6.2-0.3-11.7-2.6-17.1c-1.3-3.2-1.1-6.8,0.8-8.8c3.9-4,7.4-8.5,10.3-13.3c3.2-5.3,6.4-1.1,8.4,0.1
	c2.4,1.6-1.2,3-2,4.5c-0.4,0.8-0.2,1.7,0.3,2.3c0.8,1,1.9,2.5-0.1,3.3s-2.6-0.8-2.7-2.5c-1.9,1.1-3.5,2.7-6.6,3.3
	c3.1,1,2.4,6.4,5.9,4.1c2.3-1.5,3.7-2.2,6.1-0.8c1.3,0.8,2.6-0.2,3.4-1.5c1-1.6,1.9-3.3,3-4.8c1.2-1.7,3.6-2.2,5.3-1l0,0l0.2,0.1
	c1.8,1.2,2.1,3.4,0,4.6c-1.8,0.9-1.4,1.9-0.5,2.6c1.4,1.2,2.2,3.8,4.2,3.3c2.4-0.7,2.7-3.6,2.5-5.7c-0.2-2.3-0.8-5,1.1-6.2
	c4-2.4,4.6-7.1,7.8-9.9c6.1-5.3,2.6-13.6,6.3-19.9C219.8,175.4,214.8,173.7,213,171.5z M33.3,148.1c-0.4-0.5-1-0.7-1.6-0.7
	c-1.2,0-2.5,0.8-3.6,0.2c-0.3-0.1-0.5-0.3-0.7-0.6l0,0C30.1,144,32,144.3,33.3,148.1L33.3,148.1z M99,166.8
	c-0.1,0.1-0.2,0.2-0.4,0.2c-0.1,0-0.3-0.2-0.4-0.3c-2-0.8-4.8,2.9-6.3-1.1c-0.2-0.2-0.6-0.4-0.7-0.7c-0.6-1.7-1.9-3.4-0.1-5.2
	c0.4-0.3,0.9-0.4,1.3-0.2c1.6,1.3,0.3,3.2,0.7,4.7c1.9,0.6,3.5-0.1,5.1-1l0,0C100.7,164,98.8,165.6,99,166.8z M113.1,113.4
	c-0.7-1.9-3.5-3.6,0.6-4.7l0,0C114.7,110.3,114.7,111.7,113.1,113.4z M136.5,152.1c-1.4,0.9-2.8,1.7-4.5,0.4
	c1.1-1.9,2.9-1.4,4.5-1.4l0,0l6.6-0.7C140.3,152.8,138.3,151.9,136.5,152.1L136.5,152.1z M143.7,93.3v-0.7c0.1-0.8,0.8-1.5,1.6-1.4
	c0.1,0,0.1,0,0.2,0h0.1c1.1-0.1,2.1,0.7,2.2,1.8c0.1,0.4,0.1,0.9,0.1,1.3l0,0C146.7,93.3,145.2,92.9,143.7,93.3L143.7,93.3z
	 M148.9,146.9c-0.8,1.4-1.9,2.2-3.6,1.6c-0.1-2,2-1.5,2.6-2.6c1.6-1.7,3.3-3,5.2-0.1C151.8,147.1,149.9,145.3,148.9,146.9z
	 M153.6,98.2c0.4,0,0.9,0.1,1.3,0.2c1.5,0.5,2.7,1.6,3.3,3c0.2,0.3,0.3,0.7,0.5,1l0,0C155.5,102.9,154.5,100.7,153.6,98.2z
	 M159.2,143.7c-1.2-0.2-2.6-0.3-3.6-1.5C157.8,140.7,158.5,142.2,159.2,143.7z M164.5,165.6c-0.2,0.7,0,2.2-1.2,1.6
	c-1.4-0.6-0.9-1.9-0.1-2.9l2.8-4.8C167,162.7,165.4,164.1,164.5,165.6L164.5,165.6z"/>
<path class="st0" d="M44.1,168.2v-4.8c-0.8,2.2-2,3.3-1,4.9C43.2,168.4,43.7,168.2,44.1,168.2z"/>
<path class="st1" d="M356.2,262.6c0,5.4-8.5,13.3-8.5,13.3s-8.5-7.8-8.5-13.3c0-4.7,3.8-8.5,8.5-8.5S356.2,257.9,356.2,262.6z"/>
<circle class="st2" cx="347.7" cy="262" r="3.4"/>
<path class="st1" d="M346.2,250.6c0,5.4-8.5,13.3-8.5,13.3s-8.5-7.8-8.5-13.3c0-4.7,3.8-8.5,8.5-8.5S346.2,245.9,346.2,250.6
	L346.2,250.6z"/>
<circle class="st2" cx="337.7" cy="250" r="3.4"/>
<path class="st1" d="M326.8,301c0,4.5-7,11-7,11s-7-6.5-7-11c0-3.9,3.1-7,7-7S326.8,297.1,326.8,301z"/>
<circle class="st2" cx="319.7" cy="300.4" r="2.8"/>
<path class="st1" d="M189.2,313.6c0,5.4-8.5,13.3-8.5,13.3s-8.5-7.8-8.5-13.3c0-4.7,3.8-8.5,8.5-8.5S189.2,308.9,189.2,313.6z"/>
<circle class="st2" cx="180.7" cy="313" r="3.4"/>
<path class="st1" d="M121.2,299.6c0,5.4-8.5,13.3-8.5,13.3s-8.5-7.8-8.5-13.3c0-4.7,3.8-8.5,8.5-8.5S121.2,294.9,121.2,299.6z"/>
<circle class="st2" cx="112.7" cy="299" r="3.4"/>
<path class="st1" d="M82.2,298c0,5.4-8.5,13.3-8.5,13.3s-8.5-7.8-8.5-13.3c0-4.7,3.8-8.5,8.5-8.5S82.2,293.3,82.2,298z"/>
<circle class="st2" cx="73.8" cy="297.4" r="3.4"/>
<path class="st1" d="M38.2,301.6c0,5.4-8.5,13.3-8.5,13.3s-8.5-7.8-8.5-13.3c0-4.7,3.8-8.5,8.5-8.5S38.2,296.9,38.2,301.6z"/>
<circle class="st2" cx="29.7" cy="301" r="3.4"/>
<path class="st1" d="M115.2,169.6c0,5.4-8.5,13.3-8.5,13.3s-8.5-7.8-8.5-13.3c0-4.7,3.8-8.5,8.5-8.5S115.2,164.9,115.2,169.6z"/>
<circle class="st2" cx="106.7" cy="169" r="3.4"/>
<path class="st1" d="M172.2,206.6c0,5.4-8.5,13.3-8.5,13.3s-8.5-7.8-8.5-13.3c0-4.7,3.8-8.5,8.5-8.5S172.2,201.9,172.2,206.6z"/>
<circle class="st2" cx="163.7" cy="206" r="3.4"/>
<path class="st1" d="M154.2,85.6c0,5.4-8.5,13.3-8.5,13.3s-8.5-7.8-8.5-13.3c0-4.7,3.8-8.5,8.5-8.5S154.2,80.9,154.2,85.6z"/>
<circle class="st2" cx="145.7" cy="85" r="3.4"/>
<path class="st1" d="M164.2,28.6c0,5.4-8.5,13.3-8.5,13.3s-8.5-7.8-8.5-13.3c0-4.7,3.8-8.5,8.5-8.5S164.2,23.9,164.2,28.6z"/>
<circle class="st2" cx="155.7" cy="28" r="3.4"/>
<path class="st1" d="M164.2,171.6c0,5.4-8.5,13.3-8.5,13.3s-8.5-7.8-8.5-13.3c0-4.7,3.8-8.5,8.5-8.5S164.2,166.9,164.2,171.6
	L164.2,171.6z"/>
<circle class="st2" cx="155.7" cy="171" r="3.4"/>
<path class="st1" d="M93.2,212.6c0,5.4-8.5,13.3-8.5,13.3s-8.5-7.8-8.5-13.3c0-4.7,3.8-8.5,8.5-8.5S93.2,207.9,93.2,212.6
	L93.2,212.6z"/>
<circle class="st2" cx="84.7" cy="212" r="3.4"/>
<path class="st1" d="M136.2,208.6c0,5.4-8.5,13.3-8.5,13.3s-8.5-7.8-8.5-13.3c0-4.7,3.8-8.5,8.5-8.5S136.2,203.9,136.2,208.6z"/>
<circle class="st2" cx="127.7" cy="208" r="3.4"/>
<path class="st3" d="M122.4,266c0,5.4-8.5,13.3-8.5,13.3s-8.5-7.8-8.5-13.3c0-4.7,3.8-8.5,8.5-8.5S122.4,261.3,122.4,266z"/>
<circle class="st4" cx="113.9" cy="265.4" r="3.4"/>
<path class="st1" d="M140.2,299.6c0,5.4-8.5,13.3-8.5,13.3s-8.5-7.8-8.5-13.3c0-4.7,3.8-8.5,8.5-8.5S140.2,294.9,140.2,299.6z"/>
<circle class="st2" cx="131.7" cy="299" r="3.4"/>
<path class="st1" d="M123.4,270c0,5.4-8.5,13.3-8.5,13.3s-8.5-7.8-8.5-13.3c0-4.7,3.8-8.5,8.5-8.5S123.4,265.3,123.4,270z"/>
<circle class="st2" cx="114.9" cy="269.4" r="3.4"/>
<path class="st3" d="M80.7,303c0,5.4-8.5,13.3-8.5,13.3s-8.5-7.8-8.5-13.3c0-4.7,3.8-8.5,8.5-8.5S80.7,298.3,80.7,303z"/>
<circle class="st4" cx="72.2" cy="302.3" r="3.4"/>
<path class="st1" d="M155.7,381.7c0,5.4-8.5,13.3-8.5,13.3s-8.5-7.8-8.5-13.3c0-4.7,3.8-8.5,8.5-8.5S155.7,377,155.7,381.7z"/>
<circle class="st2" cx="147.2" cy="381" r="3.4"/>
<path class="st1" d="M314.2,404.6c0,5.4-8.5,13.3-8.5,13.3s-8.5-7.8-8.5-13.3c0-4.7,3.8-8.5,8.5-8.5S314.2,399.9,314.2,404.6z"/>
<circle class="st2" cx="305.7" cy="404" r="3.4"/>
<path class="st1" d="M294.2,305.6c0,5.4-8.5,13.3-8.5,13.3s-8.5-7.8-8.5-13.3c0-4.7,3.8-8.5,8.5-8.5S294.2,300.9,294.2,305.6z"/>
<circle class="st2" cx="285.7" cy="305" r="3.4"/>
<path class="st1" d="M293.2,266.6c0,5.4-8.5,13.3-8.5,13.3s-8.5-7.8-8.5-13.3c0-4.7,3.8-8.5,8.5-8.5S293.2,261.9,293.2,266.6z"/>
<circle class="st2" cx="284.7" cy="266" r="3.4"/>
<path class="st1" d="M344.2,265.6c0,5.4-8.5,13.3-8.5,13.3s-8.5-7.8-8.5-13.3c0-4.7,3.8-8.5,8.5-8.5S344.2,260.9,344.2,265.6z"/>
<circle class="st2" cx="335.7" cy="265" r="3.4"/>
<path class="st3" d="M355.2,214.6c0,5.4-8.5,13.3-8.5,13.3s-8.5-7.8-8.5-13.3c0-4.7,3.8-8.5,8.5-8.5S355.2,209.9,355.2,214.6z"/>
<circle class="st4" cx="346.7" cy="214" r="3.4"/>
<path class="st1" d="M334.2,231.6c0,5.4-8.5,13.3-8.5,13.3s-8.5-7.8-8.5-13.3c0-4.7,3.8-8.5,8.5-8.5S334.2,226.9,334.2,231.6z"/>
<circle class="st2" cx="325.7" cy="231" r="3.4"/>
<path class="st1" d="M316.2,269.6c0,5.4-8.5,13.3-8.5,13.3s-8.5-7.8-8.5-13.3c0-4.7,3.8-8.5,8.5-8.5S316.2,264.9,316.2,269.6z"/>
<circle class="st2" cx="307.7" cy="269" r="3.4"/>
<path class="st0" d="M309.2,22.6c1.9,2,3.3,3.6,4.9,5.1c2.6,2.4,4.9,5.5,9.2,4.2c0.4,0,0.8,0.1,1,0.4c2.5,3.5,6.4,5.9,10.7,6.5
	c0.5,0.1,1.1,1.1,1.3,1.8c1.4,4.8-1,9.2-2.2,13.6c-0.2,0.8-1.9,1.6-3,1.7c-4.1,0.5-20.6-5.5-23.7-8.2c-1.3-0.9-1.7-2.6-1.1-4
	c0.3-1.6,0.5-3.2,0.3-4.8c0-1.9-0.6-3.9-0.3-5.7C306.9,29.9,308,26.7,309.2,22.6z"/>
<rect x="294.2" y="13.4" class="st5" width="52.8" height="52.8"/>
</svg>
